<svg width="1377" height="386" viewBox="0 0 1377 386" fill="none" xmlns="http://www.w3.org/2000/svg">
<path d="M155.293 93.6625C148.423 75.4468 157.692 54.6211 177.041 52.4717C192.834 50.7173 208.894 51.6354 224.535 55.2715C251.698 61.5858 276.379 75.813 295.456 96.1541C314.533 116.495 327.15 142.036 331.711 169.548C336.272 197.06 332.573 225.306 321.08 250.715C309.588 276.124 290.819 297.555 267.147 312.297C243.475 327.039 215.964 334.431 188.091 333.537C160.218 332.643 133.236 323.504 110.557 307.276C97.4976 297.931 86.2028 286.477 77.0916 273.459C65.9286 257.509 75.4469 236.796 93.6626 229.926C111.878 223.057 131.885 233.375 146.647 246.067C148.23 247.428 149.877 248.721 151.583 249.943C162.923 258.057 176.414 262.626 190.35 263.073C204.287 263.52 218.043 259.824 229.879 252.453C241.715 245.082 251.099 234.367 256.845 221.662C262.591 208.958 264.441 194.835 262.16 181.079C259.88 167.323 253.571 154.552 244.033 144.382C234.494 134.211 222.154 127.098 208.572 123.941C206.528 123.465 204.47 123.083 202.403 122.793C183.124 120.089 162.163 111.878 155.293 93.6625Z" fill="url(#paint0_linear_12_11)"/>
<path d="M291.628 229.737C309.856 236.572 319.414 257.267 308.282 273.238C299.196 286.273 287.923 297.749 274.881 307.119C252.233 323.391 225.269 332.581 197.398 333.528C169.527 334.475 142.001 327.136 118.301 312.439C94.6006 297.743 75.7908 276.348 64.2501 250.961C52.7093 225.574 48.9559 197.334 53.4644 169.814C57.9729 142.294 70.5409 116.728 89.5791 96.3509C108.617 75.9734 133.271 61.699 160.421 55.3328C176.056 51.6668 192.114 50.718 207.91 52.4422C227.263 54.5547 236.572 75.3626 229.737 93.5914C222.902 111.82 201.957 120.071 182.683 122.812C180.617 123.106 178.559 123.492 176.515 123.971C162.94 127.154 150.613 134.292 141.094 144.48C131.575 154.669 125.291 167.452 123.037 181.212C120.783 194.972 122.659 209.092 128.43 221.785C134.2 234.479 143.605 245.176 155.455 252.525C167.305 259.873 181.068 263.542 195.004 263.069C208.939 262.595 222.421 258 233.745 249.864C235.45 248.64 237.094 247.343 238.674 245.979C253.412 233.259 273.399 222.902 291.628 229.737Z" fill="url(#paint1_linear_12_11)"/>
<path d="M293.961 251.125C305.425 257.744 309.495 272.573 301.031 282.752C294.349 290.79 286.777 298.079 278.445 304.472C263.755 315.744 246.989 324.013 229.103 328.805C211.218 333.598 192.563 334.82 174.205 332.403C155.847 329.986 138.145 323.977 122.11 314.719C106.074 305.461 92.0188 293.135 80.7468 278.445C69.4747 263.755 61.2064 246.989 56.414 229.103C51.6216 211.218 50.399 192.563 52.8159 174.205C54.1867 163.793 56.7132 153.591 60.3328 143.785C64.9169 131.366 79.794 127.475 91.2586 134.095C102.723 140.714 106.303 155.372 102.823 168.145C101.723 172.181 100.894 176.297 100.346 180.463C98.7506 192.579 99.5575 204.891 102.721 216.695C105.883 228.5 111.341 239.565 118.78 249.261C126.22 258.956 135.496 267.091 146.08 273.202C156.663 279.312 168.347 283.278 180.463 284.873C192.579 286.469 204.891 285.662 216.695 282.499C228.5 279.336 239.565 273.879 249.261 266.439C252.595 263.881 255.744 261.106 258.69 258.135C268.011 248.734 282.496 244.505 293.961 251.125Z" fill="url(#paint2_linear_12_11)"/>
<path d="M452 267L406.4 126.4H433.2L467 234.6H458L491.2 126.4H511.4L544.6 234.6H535.4L569.4 126.4H596.2L550.4 267H530.2L496.8 159H505.6L472.4 267H452ZM634.156 269C624.423 269 615.623 266.8 607.756 262.4C600.023 257.867 593.823 251.8 589.156 244.2C584.623 236.467 582.356 227.867 582.356 218.4C582.356 208.933 584.623 200.467 589.156 193C593.69 185.4 599.89 179.4 607.756 175C615.623 170.467 624.356 168.2 633.956 168.2C643.823 168.2 652.623 170.467 660.356 175C668.223 179.4 674.423 185.4 678.956 193C683.49 200.467 685.756 208.933 685.756 218.4C685.756 227.867 683.49 236.467 678.956 244.2C674.423 251.8 668.223 257.867 660.356 262.4C652.623 266.8 643.89 269 634.156 269ZM633.956 244.6C638.89 244.6 643.223 243.533 646.956 241.4C650.823 239.133 653.756 236.067 655.756 232.2C657.89 228.2 658.956 223.667 658.956 218.6C658.956 213.533 657.89 209.067 655.756 205.2C653.623 201.333 650.69 198.333 646.956 196.2C643.223 193.933 638.89 192.8 633.956 192.8C629.156 192.8 624.89 193.933 621.156 196.2C617.423 198.333 614.49 201.333 612.356 205.2C610.223 209.067 609.156 213.533 609.156 218.6C609.156 223.667 610.223 228.2 612.356 232.2C614.49 236.067 617.423 239.133 621.156 241.4C624.89 243.533 629.156 244.6 633.956 244.6ZM692.623 267V170.4H718.823V267H692.623ZM718.823 213.6L708.623 206.8C709.823 194.933 713.29 185.6 719.023 178.8C724.757 171.867 733.023 168.4 743.823 168.4C748.49 168.4 752.69 169.2 756.423 170.8C760.157 172.267 763.557 174.733 766.623 178.2L750.223 197C748.757 195.4 746.957 194.2 744.823 193.4C742.823 192.6 740.49 192.2 737.823 192.2C732.223 192.2 727.623 194 724.023 197.6C720.557 201.067 718.823 206.4 718.823 213.6ZM827.427 267L790.027 217.2L827.227 170.4H857.427L813.827 223.2L814.827 210.4L859.427 267H827.427ZM765.827 267V122.4H792.027V267H765.827ZM905.091 269C893.757 269 884.024 267.067 875.891 263.2C867.891 259.333 860.624 253.533 854.091 245.8L872.091 227.8C876.224 233.267 881.024 237.533 886.491 240.6C891.957 243.533 898.624 245 906.491 245C913.557 245 919.157 243.6 923.291 240.8C927.557 238 929.691 234.133 929.691 229.2C929.691 224.933 928.491 221.467 926.091 218.8C923.691 216.133 920.491 213.867 916.491 212C912.624 210.133 908.291 208.467 903.491 207C898.824 205.4 894.091 203.6 889.291 201.6C884.624 199.6 880.291 197.133 876.291 194.2C872.424 191.133 869.291 187.267 866.891 182.6C864.491 177.8 863.291 171.8 863.291 164.6C863.291 156.067 865.357 148.8 869.491 142.8C873.624 136.8 879.291 132.2 886.491 129C893.691 125.8 901.824 124.2 910.891 124.2C920.491 124.2 929.157 126 936.891 129.6C944.624 133.2 950.957 137.867 955.891 143.6L937.891 161.6C933.757 157.067 929.491 153.733 925.091 151.6C920.824 149.467 915.957 148.4 910.491 148.4C904.224 148.4 899.291 149.6 895.691 152C892.091 154.4 890.291 157.867 890.291 162.4C890.291 166.267 891.491 169.4 893.891 171.8C896.291 174.2 899.424 176.267 903.291 178C907.291 179.733 911.624 181.4 916.291 183C921.091 184.6 925.824 186.4 930.491 188.4C935.291 190.4 939.624 193 943.491 196.2C947.491 199.4 950.691 203.533 953.091 208.6C955.491 213.533 956.691 219.667 956.691 227C956.691 240.067 952.091 250.333 942.891 257.8C933.691 265.267 921.091 269 905.091 269ZM1030.36 267V211.6C1030.36 205.867 1028.56 201.2 1024.96 197.6C1021.36 194 1016.69 192.2 1010.96 192.2C1007.22 192.2 1003.89 193 1000.96 194.6C998.024 196.2 995.691 198.467 993.958 201.4C992.358 204.333 991.558 207.733 991.558 211.6L981.358 206.4C981.358 198.8 982.958 192.2 986.158 186.6C989.358 180.867 993.758 176.4 999.358 173.2C1005.09 170 1011.62 168.4 1018.96 168.4C1026.29 168.4 1032.76 170 1038.36 173.2C1044.09 176.4 1048.56 180.8 1051.76 186.4C1054.96 192 1056.56 198.467 1056.56 205.8V267H1030.36ZM965.358 267V122.4H991.558V267H965.358ZM1067.66 267V170.4H1094.06V267H1067.66ZM1080.86 154.8C1076.6 154.8 1073.06 153.4 1070.26 150.6C1067.46 147.667 1066.06 144.067 1066.06 139.8C1066.06 135.667 1067.46 132.133 1070.26 129.2C1073.06 126.267 1076.6 124.8 1080.86 124.8C1085.26 124.8 1088.8 126.267 1091.46 129.2C1094.26 132.133 1095.66 135.667 1095.66 139.8C1095.66 144.067 1094.26 147.667 1091.46 150.6C1088.8 153.4 1085.26 154.8 1080.86 154.8ZM1120.07 267V160C1120.07 152.267 1121.74 145.467 1125.07 139.6C1128.41 133.6 1133.14 128.867 1139.27 125.4C1145.41 121.933 1152.61 120.2 1160.87 120.2C1167.14 120.2 1172.54 121.267 1177.07 123.4C1181.61 125.533 1185.67 128.467 1189.27 132.2L1172.67 149C1171.21 147.533 1169.61 146.4 1167.87 145.6C1166.14 144.8 1163.94 144.4 1161.27 144.4C1156.47 144.4 1152.74 145.733 1150.07 148.4C1147.54 150.933 1146.27 154.6 1146.27 159.4V267H1120.07ZM1097.67 193.4V170.4H1174.87V193.4H1097.67ZM1189.6 267V130.2H1215.8V267H1189.6ZM1167 193.4V170.4H1238.4V193.4H1167ZM1243.13 267V122.4H1269.33V267H1243.13ZM1312.95 267.8L1272.55 170.4H1300.95L1327.75 244.8H1318.15L1345.95 170.4H1374.55L1331.55 267.6L1312.95 267.8ZM1286.15 307.4L1315.55 245.2L1331.55 267.6L1313.95 307.4H1286.15Z" fill="white"/>
<defs>
<linearGradient id="paint0_linear_12_11" x1="270.959" y1="343.68" x2="274.136" y2="-21.963" gradientUnits="userSpaceOnUse">
<stop stop-color="#E1CA50"/>
<stop offset="0.0001" stop-color="#F5F7FF"/>
<stop offset="0.416667" stop-color="#082DEE"/>
<stop offset="0.59375" stop-color="#302B73"/>
<stop offset="1" stop-color="#141278"/>
</linearGradient>
<linearGradient id="paint1_linear_12_11" x1="27.3459" y1="152.003" x2="300.295" y2="395.321" gradientUnits="userSpaceOnUse">
<stop stop-color="#E1CA50"/>
<stop offset="0.0001" stop-color="#F5F7FF"/>
<stop offset="0.416667" stop-color="#082DEE"/>
<stop offset="0.59375" stop-color="#302B73"/>
<stop offset="1" stop-color="#141278"/>
</linearGradient>
<linearGradient id="paint2_linear_12_11" x1="36.2513" y1="125.43" x2="265.566" y2="410.245" gradientUnits="userSpaceOnUse">
<stop stop-color="#E1CA50"/>
<stop offset="0.0001" stop-color="#F5F7FF"/>
<stop offset="0.416667" stop-color="#082DEE"/>
<stop offset="0.59375" stop-color="#302B73"/>
<stop offset="1" stop-color="#141278"/>
</linearGradient>
</defs>
</svg>
